<svg width="35" height="35" viewBox="0 0 35 35" fill="none" xmlns="http://www.w3.org/2000/svg">
<path fill-rule="evenodd" clip-rule="evenodd" d="M10.5729 9.67015V7.9639C10.5731 7.35289 10.7925 6.76224 11.1913 6.29927C11.59 5.83631 12.1416 5.53176 12.7458 5.44098L14.525 5.17411C16.4974 4.8793 18.5026 4.8793 20.475 5.17411L22.2542 5.44098C22.8584 5.53176 23.41 5.83631 23.8087 6.29927C24.2075 6.76224 24.4269 7.35289 24.4271 7.9639V9.67015L26.9267 9.8714C27.8566 9.94653 28.7346 10.3313 29.4201 10.9642C30.1056 11.5971 30.5591 12.4416 30.7081 13.3627C31.3873 17.5518 31.3873 21.8231 30.7081 26.0122C30.5591 26.9333 30.1056 27.7778 29.4201 28.4107C28.7346 29.0436 27.8566 29.4284 26.9267 29.5035L24.1967 29.7222C19.7395 30.0825 15.2605 30.0825 10.8033 29.7222L8.07333 29.5035C7.14335 29.4284 6.26542 29.0436 5.5799 28.4107C4.89438 27.7778 4.44087 26.9333 4.29188 26.0122C3.6127 21.8231 3.6127 17.5518 4.29188 13.3627C4.44116 12.4419 4.8948 11.5977 5.5803 10.9651C6.26579 10.3325 7.14356 9.94792 8.07333 9.87286L10.5729 9.67015ZM14.8502 7.33682C16.607 7.07442 18.393 7.07442 20.1498 7.33682L21.929 7.60369C22.0153 7.61661 22.0941 7.66007 22.1511 7.72617C22.2081 7.79226 22.2395 7.87662 22.2396 7.9639V9.51703C19.0824 9.33672 15.9176 9.33672 12.7604 9.51703V7.96244C12.7605 7.87516 12.7919 7.79081 12.8489 7.72471C12.9059 7.65861 12.9847 7.61515 13.071 7.60223L14.8502 7.33682ZM10.9798 11.8314C15.3198 11.4814 19.6802 11.4814 24.0202 11.8314L26.7502 12.0531C27.1926 12.0885 27.6103 12.2712 27.9366 12.5721C28.2628 12.873 28.4788 13.2746 28.5498 13.7127C28.6402 14.2736 28.718 14.8365 28.7831 15.4014C25.2728 17.1292 21.4125 18.0278 17.5 18.0278C13.5875 18.0278 9.72722 17.1292 6.21688 15.4014C6.28104 14.8375 6.35882 14.2746 6.45021 13.7127C6.52124 13.2746 6.73715 12.873 7.06341 12.5721C7.38966 12.2712 7.8074 12.0885 8.24979 12.0531L10.9798 11.8314ZM6.02146 17.7289C9.62629 19.3676 13.5402 20.2154 17.5 20.2154C21.4598 20.2154 25.3737 19.3676 28.9785 17.7289C29.1182 20.3811 28.9745 23.0406 28.5498 25.6622C28.4791 26.1006 28.2633 26.5025 27.937 26.8037C27.6107 27.1048 27.1928 27.2878 26.7502 27.3233L24.0202 27.542C19.6802 27.892 15.3198 27.892 10.9798 27.542L8.24979 27.3233C7.80719 27.2878 7.38929 27.1048 7.06301 26.8037C6.73673 26.5025 6.52094 26.1006 6.45021 25.6622C6.02583 23.0372 5.88146 20.3772 6.02146 17.7289Z" fill="black"/>
</svg>
