<svg width="24" height="24" viewBox="0 0 24 24" fill="none" xmlns="http://www.w3.org/2000/svg">
<path d="M10.562 15.908L16.958 9.512L16.25 8.804L10.562 14.492L7.712 11.642L7.004 12.35L10.562 15.908ZM12.003 21C10.759 21 9.589 20.764 8.493 20.292C7.39767 19.8193 6.44467 19.178 5.634 18.368C4.82333 17.558 4.18167 16.606 3.709 15.512C3.23633 14.418 3 13.2483 3 12.003C3 10.7577 3.23633 9.58767 3.709 8.493C4.181 7.39767 4.82133 6.44467 5.63 5.634C6.43867 4.82333 7.391 4.18167 8.487 3.709C9.583 3.23633 10.753 3 11.997 3C13.241 3 14.411 3.23633 15.507 3.709C16.6023 4.181 17.5553 4.82167 18.366 5.631C19.1767 6.44033 19.8183 7.39267 20.291 8.488C20.7637 9.58333 21 10.753 21 11.997C21 13.241 20.764 14.411 20.292 15.507C19.82 16.603 19.1787 17.556 18.368 18.366C17.5573 19.176 16.6053 19.8177 15.512 20.291C14.4187 20.7643 13.249 21.0007 12.003 21Z" fill="white"/>
</svg>
