<svg width="20" height="20" viewBox="0 0 20 20" fill="none" xmlns="http://www.w3.org/2000/svg">
<path fill-rule="evenodd" clip-rule="evenodd" d="M3.69168 7.09328C3.74512 7.03093 3.81032 6.97972 3.88356 6.94258C3.9568 6.90544 4.03665 6.88309 4.11853 6.87682C4.20041 6.87055 4.28272 6.88048 4.36076 6.90604C4.4388 6.9316 4.51104 6.97229 4.57335 7.02578L10 11.6766L15.4267 7.02578C15.5532 6.92422 15.7143 6.87584 15.8758 6.89086C16.0373 6.90589 16.1867 6.98315 16.2923 7.1063C16.398 7.22945 16.4515 7.38885 16.4418 7.55079C16.432 7.71274 16.3597 7.86454 16.24 7.97411L10.4067 12.9741C10.2934 13.0712 10.1492 13.1245 10 13.1245C9.85085 13.1245 9.70661 13.0712 9.59335 12.9741L3.76001 7.97411C3.63433 7.86621 3.55663 7.71283 3.54397 7.54767C3.53132 7.3825 3.58474 7.21907 3.69251 7.09328" fill="black"/>
</svg>
