<svg width="28" height="28" viewBox="0 0 28 28" fill="none" xmlns="http://www.w3.org/2000/svg">
<g clip-path="url(#clip0_45_706)">
<path d="M2.625 2.1875H3.5V8.3125H2.625V2.1875Z" fill="#19B4D7"/>
<path d="M5.25 2.1875H6.125V8.3125H5.25V2.1875Z" fill="#19B4D7"/>
<path d="M3.0625 4.8125H5.6875V5.6875H3.0625V4.8125Z" fill="#19B4D7"/>
<path d="M3.0625 4.8125H5.6875V5.6875H3.0625V4.8125Z" fill="#19B4D7"/>
<path d="M7 2.1875H10.5V3.0625H7V2.1875Z" fill="#19B4D7"/>
<path d="M8.3125 2.625H9.1875V8.3125H8.3125V2.625Z" fill="#19B4D7"/>
<path d="M14.875 8.3125H14V5.03781L13.5349 6.27856C13.5038 6.36215 13.4478 6.43421 13.3745 6.48509C13.3013 6.53596 13.2142 6.56323 13.125 6.56323C13.0358 6.56323 12.9487 6.53596 12.8755 6.48509C12.8022 6.43421 12.7462 6.36215 12.7151 6.27856L12.25 5.03781V8.3125H11.375V2.625C11.3748 2.52237 11.4107 2.42295 11.4765 2.34412C11.5422 2.2653 11.6335 2.21208 11.7345 2.19378C11.8355 2.17548 11.9397 2.19326 12.0289 2.24402C12.1181 2.29478 12.1866 2.37528 12.2224 2.47144L13.125 4.879L14.0276 2.47275C14.0634 2.37669 14.1318 2.29626 14.2208 2.2455C14.3099 2.19473 14.414 2.17685 14.5149 2.19498C14.6158 2.2131 14.7071 2.26609 14.7729 2.34468C14.8387 2.42327 14.8749 2.52249 14.875 2.625V8.3125Z" fill="#19B4D7"/>
<path d="M18.8125 8.3125H17.0625C16.8888 8.31758 16.7158 8.28711 16.5543 8.22294C16.3927 8.15878 16.246 8.06229 16.1231 7.93939C16.0002 7.81648 15.9037 7.66976 15.8396 7.50822C15.7754 7.34668 15.7449 7.17374 15.75 7V2.1875H16.625V7C16.6192 7.05889 16.6266 7.11832 16.6465 7.17403C16.6664 7.22973 16.6985 7.28033 16.7403 7.32217C16.7822 7.364 16.8328 7.39605 16.8885 7.41599C16.9442 7.43593 17.0036 7.44328 17.0625 7.4375H18.8125V8.3125Z" fill="#19B4D7"/>
<path d="M7 12.6875C6.88397 12.6875 6.77269 12.6414 6.69064 12.5594C6.60859 12.4773 6.5625 12.366 6.5625 12.25V10.5H0.4375C0.321468 10.5 0.210188 10.4539 0.128141 10.3719C0.0460936 10.2898 0 10.1785 0 10.0625V0.4375C0 0.321468 0.0460936 0.210188 0.128141 0.128141C0.210188 0.0460936 0.321468 0 0.4375 0L20.5625 0C20.6785 0 20.7898 0.0460936 20.8719 0.128141C20.9539 0.210188 21 0.321468 21 0.4375V10.0625C21 10.1785 20.9539 10.2898 20.8719 10.3719C20.7898 10.4539 20.6785 10.5 20.5625 10.5H9.36862L7.30931 12.5593C7.22728 12.6414 7.11602 12.6875 7 12.6875ZM0.875 9.625H7C7.11603 9.625 7.22731 9.67109 7.30936 9.75314C7.39141 9.83519 7.4375 9.94647 7.4375 10.0625V11.1939L8.87819 9.75319C8.96022 9.67113 9.07148 9.62502 9.1875 9.625H20.125V0.875H0.875V9.625Z" fill="#19B4D7"/>
<path d="M16.625 28C16.509 28 16.3977 27.9539 16.3156 27.8719C16.2336 27.7898 16.1875 27.6785 16.1875 27.5625V25.8125H6.5625C6.44647 25.8125 6.33519 25.7664 6.25314 25.6844C6.17109 25.6023 6.125 25.491 6.125 25.375V14.875C6.125 14.759 6.17109 14.6477 6.25314 14.5656C6.33519 14.4836 6.44647 14.4375 6.5625 14.4375H27.5625C27.6785 14.4375 27.7898 14.4836 27.8719 14.5656C27.9539 14.6477 28 14.759 28 14.875V25.375C28 25.491 27.9539 25.6023 27.8719 25.6844C27.7898 25.7664 27.6785 25.8125 27.5625 25.8125H18.9936L16.9343 27.8718C16.8523 27.9539 16.741 28 16.625 28ZM7 24.9375H16.625C16.741 24.9375 16.8523 24.9836 16.9344 25.0656C17.0164 25.1477 17.0625 25.259 17.0625 25.375V26.5064L18.5032 25.0657C18.5852 24.9836 18.6965 24.9375 18.8125 24.9375H27.125V15.3125H7V24.9375Z" fill="#19B4D7"/>
<path d="M22.3125 20.5625C21.8799 20.5625 21.4569 20.4342 21.0972 20.1938C20.7375 19.9535 20.4571 19.6118 20.2915 19.2121C20.1259 18.8124 20.0826 18.3726 20.167 17.9482C20.2514 17.5239 20.4598 17.1341 20.7657 16.8282C21.0716 16.5223 21.4614 16.3139 21.8857 16.2295C22.3101 16.1451 22.7499 16.1884 23.1496 16.354C23.5493 16.5196 23.891 16.8 24.1313 17.1597C24.3717 17.5194 24.5 17.9424 24.5 18.375H23.625C23.625 18.1154 23.548 17.8617 23.4038 17.6458C23.2596 17.43 23.0546 17.2617 22.8148 17.1624C22.5749 17.0631 22.311 17.0371 22.0564 17.0877C21.8018 17.1384 21.568 17.2634 21.3844 17.4469C21.2009 17.6305 21.0759 17.8643 21.0252 18.1189C20.9746 18.3735 21.0006 18.6374 21.0999 18.8773C21.1992 19.1171 21.3675 19.3221 21.5833 19.4663C21.7992 19.6105 22.0529 19.6875 22.3125 19.6875V20.5625Z" fill="#19B4D7"/>
<path d="M22.3125 24.0625C21.7326 24.0618 21.1766 23.8311 20.7665 23.421C20.3564 23.0109 20.1257 22.4549 20.125 21.875H21C21 22.1346 21.077 22.3883 21.2212 22.6042C21.3654 22.82 21.5704 22.9883 21.8102 23.0876C22.0501 23.1869 22.314 23.2129 22.5686 23.1623C22.8232 23.1116 23.057 22.9866 23.2406 22.8031C23.4241 22.6195 23.5491 22.3857 23.5998 22.1311C23.6504 21.8765 23.6244 21.6126 23.5251 21.3727C23.4258 21.1329 23.2575 20.9279 23.0417 20.7837C22.8258 20.6395 22.5721 20.5625 22.3125 20.5625V19.6875C22.8927 19.6875 23.4491 19.918 23.8593 20.3282C24.2695 20.7384 24.5 21.2948 24.5 21.875C24.5 22.4552 24.2695 23.0116 23.8593 23.4218C23.4491 23.832 22.8927 24.0625 22.3125 24.0625Z" fill="#19B4D7"/>
<path d="M17.0625 20.5625C16.6299 20.5625 16.2069 20.4342 15.8472 20.1938C15.4875 19.9535 15.2071 19.6118 15.0415 19.2121C14.8759 18.8124 14.8326 18.3726 14.917 17.9482C15.0014 17.5239 15.2098 17.1341 15.5157 16.8282C15.8216 16.5223 16.2114 16.3139 16.6357 16.2295C17.0601 16.1451 17.4999 16.1884 17.8996 16.354C18.2993 16.5196 18.641 16.8 18.8813 17.1597C19.1217 17.5194 19.25 17.9424 19.25 18.375H18.375C18.375 18.1154 18.298 17.8617 18.1538 17.6458C18.0096 17.43 17.8046 17.2617 17.5648 17.1624C17.3249 17.0631 17.061 17.0371 16.8064 17.0877C16.5518 17.1384 16.318 17.2634 16.1344 17.4469C15.9509 17.6305 15.8259 17.8643 15.7752 18.1189C15.7246 18.3735 15.7506 18.6374 15.8499 18.8773C15.9492 19.1171 16.1175 19.3221 16.3333 19.4663C16.5492 19.6105 16.8029 19.6875 17.0625 19.6875V20.5625Z" fill="#19B4D7"/>
<path d="M17.0625 24.0625C16.4826 24.0618 15.9266 23.8311 15.5165 23.421C15.1064 23.0109 14.8757 22.4549 14.875 21.875H15.75C15.75 22.1346 15.827 22.3883 15.9712 22.6042C16.1154 22.82 16.3204 22.9883 16.5602 23.0876C16.8001 23.1869 17.064 23.2129 17.3186 23.1623C17.5732 23.1116 17.807 22.9866 17.9906 22.8031C18.1741 22.6195 18.2991 22.3857 18.3498 22.1311C18.4004 21.8765 18.3744 21.6126 18.2751 21.3727C18.1758 21.1329 18.0075 20.9279 17.7917 20.7837C17.5758 20.6395 17.3221 20.5625 17.0625 20.5625V19.6875C17.6427 19.6875 18.1991 19.918 18.6093 20.3282C19.0195 20.7384 19.25 21.2948 19.25 21.875C19.25 22.4552 19.0195 23.0116 18.6093 23.4218C18.1991 23.832 17.6427 24.0625 17.0625 24.0625Z" fill="#19B4D7"/>
<path d="M11.8125 24.0625C11.2326 24.0618 10.6766 23.8311 10.2665 23.421C9.85639 23.0109 9.62569 22.4549 9.625 21.875V18.375C9.625 17.7948 9.85547 17.2384 10.2657 16.8282C10.6759 16.418 11.2323 16.1875 11.8125 16.1875C12.3927 16.1875 12.9491 16.418 13.3593 16.8282C13.7695 17.2384 14 17.7948 14 18.375H13.125C13.125 18.0269 12.9867 17.6931 12.7406 17.4469C12.4944 17.2008 12.1606 17.0625 11.8125 17.0625C11.4644 17.0625 11.1306 17.2008 10.8844 17.4469C10.6383 17.6931 10.5 18.0269 10.5 18.375V21.875C10.5 22.2231 10.6383 22.5569 10.8844 22.8031C11.1306 23.0492 11.4644 23.1875 11.8125 23.1875C12.1606 23.1875 12.4944 23.0492 12.7406 22.8031C12.9867 22.5569 13.125 22.2231 13.125 21.875H14C13.9993 22.4549 13.7686 23.0109 13.3585 23.421C12.9484 23.8311 12.3924 24.0618 11.8125 24.0625Z" fill="#19B4D7"/>
<path d="M24.0625 13.125H9.625V12.25H24.0625C24.2373 12.2593 24.4121 12.2317 24.5755 12.169C24.739 12.1063 24.8874 12.0099 25.0112 11.8862C25.1349 11.7624 25.2313 11.614 25.294 11.4505C25.3567 11.2871 25.3843 11.1123 25.375 10.9375V10.5H26.25V10.9375C26.261 11.2277 26.2119 11.5171 26.1059 11.7875C25.9998 12.0578 25.8391 12.3034 25.6337 12.5087C25.4284 12.7141 25.1828 12.8748 24.9124 12.9809C24.6421 13.0869 24.3527 13.136 24.0625 13.125Z" fill="#19B4D7"/>
<path d="M26.25 7.87505H25.375V7.00005C25.3842 6.82503 25.3565 6.65004 25.2936 6.48644C25.2308 6.32284 25.1342 6.17431 25.0101 6.05051C24.8861 5.92671 24.7374 5.83041 24.5736 5.76787C24.4099 5.70534 24.2349 5.67797 24.0599 5.68755H21.875V4.81255H24.0625C24.3527 4.80155 24.6421 4.85062 24.9124 4.95666C25.1828 5.0627 25.4284 5.22344 25.6337 5.4288C25.8391 5.63416 25.9998 5.87972 26.1059 6.1501C26.2119 6.42047 26.261 6.70983 26.25 7.00005V7.87505Z" fill="#19B4D7"/>
<path d="M5.25 21H3.9375C3.58924 21.0132 3.242 20.9543 2.91755 20.8271C2.59309 20.6998 2.29842 20.507 2.05198 20.2605C1.80554 20.0141 1.61266 19.7194 1.48541 19.395C1.35816 19.0705 1.2993 18.7233 1.3125 18.375V17.9375H2.1875V18.375C2.17826 18.6073 2.2172 18.839 2.30188 19.0555C2.38655 19.272 2.51513 19.4686 2.67951 19.633C2.84389 19.7974 3.04052 19.9259 3.25703 20.0106C3.47353 20.0953 3.70521 20.1342 3.9375 20.125H5.25V21Z" fill="#19B4D7"/>
<path d="M2.1875 15.3126H1.3125V14.8751C1.2993 14.5268 1.35816 14.1796 1.48541 13.8552C1.61266 13.5307 1.80554 13.236 2.05198 12.9896C2.29842 12.7431 2.59309 12.5503 2.91755 12.423C3.242 12.2958 3.58924 12.2369 3.9375 12.2501H5.25V13.1251H3.9375C3.70521 13.1159 3.47353 13.1548 3.25703 13.2395C3.04052 13.3242 2.84389 13.4527 2.67951 13.6171C2.51513 13.7815 2.38655 13.9781 2.30188 14.1946C2.2172 14.4111 2.17826 14.6428 2.1875 14.8751V15.3126Z" fill="#19B4D7"/>
<path d="M25.8125 10.9375C25.4664 10.9375 25.128 10.8349 24.8403 10.6426C24.5525 10.4503 24.3282 10.177 24.1957 9.8572C24.0633 9.53743 24.0286 9.18556 24.0961 8.84609C24.1637 8.50663 24.3303 8.19481 24.5751 7.95006C24.8198 7.70532 25.1316 7.53865 25.4711 7.47113C25.8106 7.4036 26.1624 7.43826 26.4822 7.57071C26.802 7.70316 27.0753 7.92747 27.2676 8.21525C27.4599 8.50304 27.5625 8.84138 27.5625 9.1875C27.5625 9.65163 27.3781 10.0967 27.0499 10.4249C26.7217 10.7531 26.2766 10.9375 25.8125 10.9375ZM25.8125 8.3125C25.6394 8.3125 25.4703 8.36382 25.3264 8.45997C25.1825 8.55611 25.0703 8.69277 25.0041 8.85265C24.9379 9.01254 24.9206 9.18847 24.9543 9.35821C24.9881 9.52794 25.0714 9.68385 25.1938 9.80622C25.3162 9.92859 25.4721 10.0119 25.6418 10.0457C25.8115 10.0795 25.9875 10.0621 26.1473 9.9959C26.3072 9.92967 26.4439 9.81752 26.54 9.67363C26.6362 9.52973 26.6875 9.36056 26.6875 9.1875C26.6875 8.95544 26.5953 8.73288 26.4312 8.56878C26.2671 8.40469 26.0446 8.3125 25.8125 8.3125Z" fill="#19B4D7"/>
<path d="M1.75 18.375C1.40388 18.375 1.06554 18.2724 0.777753 18.0801C0.489967 17.8878 0.265665 17.6145 0.133212 17.2947C0.000758242 16.9749 -0.0338976 16.6231 0.0336265 16.2836C0.101151 15.9441 0.267822 15.6323 0.512564 15.3876C0.757306 15.1428 1.06913 14.9762 1.40859 14.9086C1.74806 14.8411 2.09993 14.8758 2.4197 15.0082C2.73947 15.1407 3.01278 15.365 3.20507 15.6528C3.39737 15.9405 3.5 16.2789 3.5 16.625C3.5 17.0891 3.31563 17.5342 2.98744 17.8624C2.65925 18.1906 2.21413 18.375 1.75 18.375ZM1.75 15.75C1.57694 15.75 1.40777 15.8013 1.26388 15.8975C1.11998 15.9936 1.00783 16.1303 0.941606 16.2902C0.87538 16.45 0.858052 16.626 0.891814 16.7957C0.925576 16.9654 1.00891 17.1213 1.13128 17.2437C1.25365 17.3661 1.40956 17.4494 1.5793 17.4832C1.74903 17.517 1.92496 17.4996 2.08485 17.4334C2.24473 17.3672 2.38139 17.255 2.47754 17.1111C2.57368 16.9672 2.625 16.7981 2.625 16.625C2.625 16.3929 2.53281 16.1704 2.36872 16.0063C2.20462 15.8422 1.98207 15.75 1.75 15.75Z" fill="#19B4D7"/>
</g>
<defs>
<clipPath id="clip0_45_706">
<rect width="28" height="28" fill="white"/>
</clipPath>
</defs>
</svg>
