<svg width="30" height="30" viewBox="0 0 30 30" fill="none" xmlns="http://www.w3.org/2000/svg">
<path d="M27.1875 4.21875H2.8125C2.43954 4.21875 2.08185 4.36691 1.81813 4.63063C1.55441 4.89435 1.40625 5.25204 1.40625 5.625V24.375C1.40625 24.748 1.55441 25.1056 1.81813 25.3694C2.08185 25.6331 2.43954 25.7812 2.8125 25.7812H27.1875C27.5605 25.7812 27.9181 25.6331 28.1819 25.3694C28.4456 25.1056 28.5938 24.748 28.5938 24.375V5.625C28.5938 5.25204 28.4456 4.89435 28.1819 4.63063C27.9181 4.36691 27.5605 4.21875 27.1875 4.21875ZM27.6562 24.375C27.6562 24.4993 27.6069 24.6185 27.519 24.7065C27.431 24.7944 27.3118 24.8438 27.1875 24.8438H2.8125C2.68818 24.8438 2.56895 24.7944 2.48104 24.7065C2.39314 24.6185 2.34375 24.4993 2.34375 24.375V5.625C2.34375 5.50068 2.39314 5.38145 2.48104 5.29354C2.56895 5.20564 2.68818 5.15625 2.8125 5.15625H27.1875C27.3118 5.15625 27.431 5.20564 27.519 5.29354C27.6069 5.38145 27.6562 5.50068 27.6562 5.625V24.375Z" fill="#50D4F2"/>
<path d="M25.1016 10.7391C24.9187 10.6593 24.7457 10.5586 24.5859 10.4391C24.5945 10.237 24.6291 10.0369 24.6891 9.84375C24.8109 9.35156 24.9516 8.79375 24.5625 8.4375C24.1734 8.08125 23.5828 8.27344 23.1188 8.4375C22.9477 8.50422 22.7723 8.55903 22.5938 8.60156C22.4631 8.46028 22.3512 8.30273 22.2609 8.13281C21.9938 7.6875 21.7172 7.19531 21.15 7.19531C20.5828 7.19531 20.3719 7.725 20.1563 8.18437C20.0806 8.36644 19.9847 8.53941 19.8703 8.7C19.6681 8.69682 19.4675 8.66365 19.275 8.60156C18.8063 8.475 18.2297 8.33438 17.8688 8.72813C17.5078 9.12188 17.6953 9.68906 17.8688 10.1766C17.9352 10.3509 17.99 10.5294 18.0328 10.7109C17.8913 10.8426 17.7338 10.956 17.5641 11.0484C17.1422 11.3016 16.6266 11.6156 16.6266 12.1594C16.6266 12.7031 17.1609 12.9422 17.6156 13.1672C17.7989 13.2422 17.9722 13.3398 18.1313 13.4578C18.1247 13.6631 18.09 13.8666 18.0281 14.0625C17.9016 14.5547 17.7656 15.1172 18.1547 15.4688C18.2541 15.5557 18.3721 15.6187 18.4997 15.6528C18.6273 15.687 18.7611 15.6913 18.8906 15.6656V22.3453C18.8904 22.4332 18.915 22.5193 18.9614 22.5939C19.0078 22.6685 19.0742 22.7285 19.1531 22.7672C19.2174 22.7983 19.288 22.8144 19.3594 22.8141C19.4624 22.8151 19.5629 22.7821 19.6453 22.7203L21.3563 21.4172L23.0719 22.7203C23.1415 22.7725 23.2243 22.8043 23.311 22.8122C23.3977 22.82 23.4849 22.8035 23.5628 22.7646C23.6406 22.7256 23.7061 22.6658 23.7519 22.5918C23.7976 22.5177 23.8219 22.4324 23.8219 22.3453V15.3938C23.9978 15.4522 24.1862 15.4626 24.3675 15.4239C24.5488 15.3852 24.7164 15.2987 24.8531 15.1734C25.2188 14.7703 25.0266 14.2359 24.8531 13.725C24.7865 13.5512 24.7332 13.3725 24.6938 13.1906C24.8347 13.0595 24.9923 12.9476 25.1625 12.8578C25.5844 12.6047 26.1 12.2906 26.1 11.7469C26.1 11.2031 25.5563 10.9594 25.1016 10.7391ZM21.6422 20.4562C21.5606 20.3943 21.461 20.3607 21.3586 20.3607C21.2562 20.3607 21.1566 20.3943 21.075 20.4562L19.8281 21.3937V15.3938C19.9241 15.3588 20.0229 15.3322 20.1234 15.3141C20.2556 15.4541 20.3676 15.6119 20.4563 15.7828C20.7141 16.2234 21.0047 16.7203 21.525 16.7203H21.5625C22.0969 16.6969 22.3453 16.1766 22.5656 15.7172C22.6434 15.5362 22.7392 15.3634 22.8516 15.2016H22.8844V21.4031L21.6422 20.4562ZM24.6891 12.0516C24.3184 12.2164 24.0132 12.5001 23.8219 12.8578C23.7408 13.2558 23.7935 13.6694 23.9719 14.0344C24.0285 14.1875 24.0754 14.3441 24.1125 14.5031C23.9654 14.4809 23.8198 14.4496 23.6766 14.4094C23.2904 14.2562 22.8631 14.2413 22.4672 14.3672C22.1189 14.5958 21.8567 14.9339 21.7219 15.3281C21.6656 15.4406 21.5859 15.6094 21.5156 15.7219C21.4236 15.5957 21.3391 15.4642 21.2625 15.3281C21.0997 14.9553 20.8178 14.647 20.4609 14.4516C20.3601 14.4159 20.2538 14.3984 20.1469 14.4C19.8515 14.4206 19.5615 14.4903 19.2891 14.6062C19.1625 14.6484 18.9703 14.7141 18.8203 14.7422C18.8203 14.6109 18.8859 14.4281 18.9188 14.3016C19.0672 13.9128 19.082 13.4857 18.9609 13.0875C18.7415 12.7393 18.4113 12.4752 18.0234 12.3375C17.9109 12.2812 17.7375 12.1969 17.625 12.1266C17.7531 12.0321 17.8861 11.9444 18.0234 11.8641C18.3946 11.7023 18.7002 11.4198 18.8906 11.0625C18.98 10.6612 18.9305 10.2413 18.75 9.87187C18.7078 9.74062 18.6375 9.54844 18.6094 9.40312C18.7563 9.42821 18.9018 9.46107 19.0453 9.50156C19.4336 9.65249 19.8616 9.66736 20.2594 9.54375C20.6059 9.31437 20.8664 8.97635 21 8.58281C21.0563 8.47031 21.1406 8.29687 21.2109 8.18906C21.2906 8.29687 21.3938 8.46562 21.4641 8.58281C21.6243 8.95615 21.907 9.26369 22.2656 9.45469C22.6619 9.54022 23.0755 9.48728 23.4375 9.30469C23.5641 9.2625 23.7516 9.19219 23.9063 9.16406C23.8845 9.31434 23.8532 9.46308 23.8125 9.60937C23.6641 9.99817 23.6493 10.4253 23.7703 10.8234C23.9903 11.1711 24.3203 11.4351 24.7078 11.5734C24.8445 11.6363 24.9775 11.7067 25.1063 11.7844C24.9731 11.8823 24.8337 11.9715 24.6891 12.0516Z" fill="#50D4F2"/>
<path d="M4.21875 9.30933H8.85937C8.98369 9.30933 9.10292 9.25994 9.19083 9.17203C9.27874 9.08412 9.32812 8.9649 9.32812 8.84058C9.32812 8.71626 9.27874 8.59703 9.19083 8.50912C9.10292 8.42121 8.98369 8.37183 8.85937 8.37183H4.21875C4.09443 8.37183 3.9752 8.42121 3.88729 8.50912C3.79939 8.59703 3.75 8.71626 3.75 8.84058C3.75 8.9649 3.79939 9.08412 3.88729 9.17203C3.9752 9.25994 4.09443 9.30933 4.21875 9.30933Z" fill="#50D4F2"/>
<path d="M8.86406 11.4797H4.21875C4.09443 11.4797 3.9752 11.5291 3.88729 11.617C3.79939 11.7049 3.75 11.8242 3.75 11.9485C3.75 12.0728 3.79939 12.192 3.88729 12.2799C3.9752 12.3679 4.09443 12.4172 4.21875 12.4172H8.84531C8.96963 12.4172 9.08886 12.3679 9.17677 12.2799C9.26468 12.192 9.31406 12.0728 9.31406 11.9485C9.31406 11.8242 9.26468 11.7049 9.17677 11.617C9.08886 11.5291 8.96963 11.4797 8.84531 11.4797H8.86406Z" fill="#50D4F2"/>
<path d="M14.1703 14.592H4.21875C4.09443 14.592 3.9752 14.6414 3.88729 14.7293C3.79939 14.8172 3.75 14.9365 3.75 15.0608C3.75 15.1851 3.79939 15.3043 3.88729 15.3922C3.9752 15.4802 4.09443 15.5295 4.21875 15.5295H14.1563C14.2806 15.5295 14.3998 15.4802 14.4877 15.3922C14.5756 15.3043 14.625 15.1851 14.625 15.0608C14.625 14.9365 14.5756 14.8172 14.4877 14.7293C14.3998 14.6414 14.2806 14.592 14.1563 14.592H14.1703Z" fill="#50D4F2"/>
<path d="M14.1703 17.7046H4.21875C4.09443 17.7046 3.9752 17.754 3.88729 17.8419C3.79939 17.9298 3.75 18.049 3.75 18.1733C3.75 18.2977 3.79939 18.4169 3.88729 18.5048C3.9752 18.5927 4.09443 18.6421 4.21875 18.6421H14.1563C14.2806 18.6421 14.3998 18.5927 14.4877 18.5048C14.5756 18.4169 14.625 18.2977 14.625 18.1733C14.625 18.049 14.5756 17.9298 14.4877 17.8419C14.3998 17.754 14.2806 17.7046 14.1563 17.7046H14.1703Z" fill="#50D4F2"/>
<path d="M14.1703 20.8125H4.21875C4.09443 20.8125 3.9752 20.8619 3.88729 20.9498C3.79939 21.0377 3.75 21.1569 3.75 21.2812C3.75 21.4056 3.79939 21.5248 3.88729 21.6127C3.9752 21.7006 4.09443 21.75 4.21875 21.75H14.1563C14.2806 21.75 14.3998 21.7006 14.4877 21.6127C14.5756 21.5248 14.625 21.4056 14.625 21.2812C14.625 21.1569 14.5756 21.0377 14.4877 20.9498C14.3998 20.8619 14.2806 20.8125 14.1563 20.8125H14.1703Z" fill="#50D4F2"/>
</svg>
