<svg width="48" height="48" viewBox="0 0 48 48" fill="none" xmlns="http://www.w3.org/2000/svg">
<circle cx="24" cy="24" r="24" fill="#50D4F2" fill-opacity="0.15"/>
<path d="M29.4877 10.0748C29.4442 10.0313 29.3925 9.99673 29.3356 9.97318C29.2788 9.94962 29.2178 9.9375 29.1562 9.9375H16.0312C15.1613 9.93848 14.3273 10.2845 13.7121 10.8996C13.097 11.5148 12.751 12.3488 12.75 13.2188V34.7812C12.751 35.6512 13.097 36.4852 13.7121 37.1004C14.3273 37.7155 15.1613 38.0615 16.0312 38.0625H31.9688C32.8387 38.0615 33.6727 37.7155 34.2879 37.1004C34.903 36.4852 35.249 35.6512 35.25 34.7812V16.0312C35.25 15.9697 35.2379 15.9087 35.2143 15.8519C35.1908 15.795 35.1562 15.7433 35.1127 15.6998L29.4877 10.0748ZM29.625 11.5379L33.6496 15.5625H31.9688C31.3474 15.5618 30.7516 15.3146 30.3122 14.8753C29.8729 14.4359 29.6257 13.8401 29.625 13.2188V11.5379ZM16.0312 10.875H28.6875V13.2188C28.6885 14.0887 29.0345 14.9227 29.6496 15.5379C30.2648 16.153 31.0988 16.499 31.9688 16.5H34.3125V29.625H13.6875V13.2188C13.6882 12.5974 13.9354 12.0016 14.3747 11.5622C14.8141 11.1229 15.4099 10.8757 16.0312 10.875ZM31.9688 37.125H16.0312C15.4099 37.1243 14.8141 36.8771 14.3747 36.4378C13.9354 35.9984 13.6882 35.4026 13.6875 34.7812V30.5625H34.3125V34.7812C34.3118 35.4026 34.0646 35.9984 33.6253 36.4378C33.1859 36.8771 32.5901 37.1243 31.9688 37.125Z" fill="#19B4D7"/>
<path d="M23.0625 31.5C22.9382 31.5 22.819 31.5494 22.731 31.6373C22.6431 31.7252 22.5938 31.8444 22.5938 31.9688V34.7812C22.5938 34.9056 22.5444 35.0248 22.4565 35.1127C22.3685 35.2006 22.2493 35.25 22.125 35.25C22.0007 35.25 21.8815 35.2006 21.7935 35.1127C21.7056 35.0248 21.6562 34.9056 21.6562 34.7812C21.6562 34.6569 21.6069 34.5377 21.519 34.4498C21.431 34.3619 21.3118 34.3125 21.1875 34.3125C21.0632 34.3125 20.944 34.3619 20.856 34.4498C20.7681 34.5377 20.7188 34.6569 20.7188 34.7812C20.7188 35.1542 20.8669 35.5119 21.1306 35.7756C21.3944 36.0393 21.752 36.1875 22.125 36.1875C22.498 36.1875 22.8556 36.0393 23.1194 35.7756C23.3831 35.5119 23.5312 35.1542 23.5312 34.7812V31.9688C23.5312 31.8444 23.4819 31.7252 23.394 31.6373C23.306 31.5494 23.1868 31.5 23.0625 31.5Z" fill="#19B4D7"/>
<path d="M25.875 32.4375H26.8125C26.9368 32.4375 27.056 32.3881 27.144 32.3002C27.2319 32.2123 27.2812 32.0931 27.2812 31.9688C27.2812 31.8444 27.2319 31.7252 27.144 31.6373C27.056 31.5494 26.9368 31.5 26.8125 31.5H25.875C25.502 31.5 25.1444 31.6482 24.8806 31.9119C24.6169 32.1756 24.4688 32.5333 24.4688 32.9062C24.4688 33.2792 24.6169 33.6369 24.8806 33.9006C25.1444 34.1643 25.502 34.3125 25.875 34.3125C25.9993 34.3125 26.1185 34.3619 26.2065 34.4498C26.2944 34.5377 26.3438 34.6569 26.3438 34.7812C26.3438 34.9056 26.2944 35.0248 26.2065 35.1127C26.1185 35.2006 25.9993 35.25 25.875 35.25H24.9375C24.8132 35.25 24.694 35.2994 24.606 35.3873C24.5181 35.4752 24.4688 35.5944 24.4688 35.7188C24.4688 35.8431 24.5181 35.9623 24.606 36.0502C24.694 36.1381 24.8132 36.1875 24.9375 36.1875H25.875C26.248 36.1875 26.6056 36.0393 26.8694 35.7756C27.1331 35.5119 27.2812 35.1542 27.2812 34.7812C27.2812 34.4083 27.1331 34.0506 26.8694 33.7869C26.6056 33.5232 26.248 33.375 25.875 33.375C25.7507 33.375 25.6315 33.3256 25.5435 33.2377C25.4556 33.1498 25.4062 33.0306 25.4062 32.9062C25.4062 32.7819 25.4556 32.6627 25.5435 32.5748C25.6315 32.4869 25.7507 32.4375 25.875 32.4375Z" fill="#19B4D7"/>
<path d="M25.875 22.125C26.1339 22.125 26.3438 21.9151 26.3438 21.6562C26.3438 21.3974 26.1339 21.1875 25.875 21.1875C25.6161 21.1875 25.4062 21.3974 25.4062 21.6562C25.4062 21.9151 25.6161 22.125 25.875 22.125Z" fill="#19B4D7"/>
<path d="M22.125 22.125C22.3839 22.125 22.5938 21.9151 22.5938 21.6562C22.5938 21.3974 22.3839 21.1875 22.125 21.1875C21.8661 21.1875 21.6562 21.3974 21.6562 21.6562C21.6562 21.9151 21.8661 22.125 22.125 22.125Z" fill="#19B4D7"/>
<path d="M24 22.125C24.2589 22.125 24.4688 21.9151 24.4688 21.6562C24.4688 21.3974 24.2589 21.1875 24 21.1875C23.7411 21.1875 23.5312 21.3974 23.5312 21.6562C23.5312 21.9151 23.7411 22.125 24 22.125Z" fill="#19B4D7"/>
<path d="M17.9062 22.125C18.0305 22.1251 18.1497 22.1746 18.2376 22.2624C18.3254 22.3503 18.3749 22.4695 18.375 22.5938V24.4688C18.3754 24.8416 18.5237 25.199 18.7874 25.4626C19.051 25.7263 19.4084 25.8746 19.7812 25.875C19.9056 25.875 20.0248 25.8256 20.1127 25.7377C20.2006 25.6498 20.25 25.5306 20.25 25.4062C20.25 25.2819 20.2006 25.1627 20.1127 25.0748C20.0248 24.9869 19.9056 24.9375 19.7812 24.9375C19.657 24.9374 19.5378 24.8879 19.4499 24.8001C19.3621 24.7122 19.3126 24.593 19.3125 24.4688V22.5938C19.3128 22.2476 19.1849 21.9137 18.9536 21.6562C19.1849 21.3988 19.3128 21.0649 19.3125 20.7188V18.8438C19.3126 18.7195 19.3621 18.6003 19.4499 18.5124C19.5378 18.4246 19.657 18.3751 19.7812 18.375C19.9056 18.375 20.0248 18.3256 20.1127 18.2377C20.2006 18.1498 20.25 18.0306 20.25 17.9062C20.25 17.7819 20.2006 17.6627 20.1127 17.5748C20.0248 17.4869 19.9056 17.4375 19.7812 17.4375C19.4084 17.4379 19.051 17.5862 18.7874 17.8499C18.5237 18.1135 18.3754 18.4709 18.375 18.8438V20.7188C18.3749 20.843 18.3254 20.9622 18.2376 21.0501C18.1497 21.1379 18.0305 21.1874 17.9062 21.1875C17.7819 21.1875 17.6627 21.2369 17.5748 21.3248C17.4869 21.4127 17.4375 21.5319 17.4375 21.6562C17.4375 21.7806 17.4869 21.8998 17.5748 21.9877C17.6627 22.0756 17.7819 22.125 17.9062 22.125Z" fill="#19B4D7"/>
<path d="M28.6875 24.4688C28.6874 24.593 28.6379 24.7122 28.5501 24.8001C28.4622 24.8879 28.343 24.9374 28.2188 24.9375C28.0944 24.9375 27.9752 24.9869 27.8873 25.0748C27.7994 25.1627 27.75 25.2819 27.75 25.4062C27.75 25.5306 27.7994 25.6498 27.8873 25.7377C27.9752 25.8256 28.0944 25.875 28.2188 25.875C28.5916 25.8746 28.949 25.7263 29.2126 25.4626C29.4763 25.199 29.6246 24.8416 29.625 24.4688V22.5938C29.6251 22.4695 29.6746 22.3503 29.7624 22.2624C29.8503 22.1746 29.9695 22.1251 30.0938 22.125C30.2181 22.125 30.3373 22.0756 30.4252 21.9877C30.5131 21.8998 30.5625 21.7806 30.5625 21.6562C30.5625 21.5319 30.5131 21.4127 30.4252 21.3248C30.3373 21.2369 30.2181 21.1875 30.0938 21.1875C29.9695 21.1874 29.8503 21.1379 29.7624 21.0501C29.6746 20.9622 29.6251 20.843 29.625 20.7188V18.8438C29.6246 18.4709 29.4763 18.1135 29.2126 17.8499C28.949 17.5862 28.5916 17.4379 28.2188 17.4375C28.0944 17.4375 27.9752 17.4869 27.8873 17.5748C27.7994 17.6627 27.75 17.7819 27.75 17.9062C27.75 18.0306 27.7994 18.1498 27.8873 18.2377C27.9752 18.3256 28.0944 18.375 28.2188 18.375C28.343 18.3751 28.4622 18.4246 28.5501 18.5124C28.6379 18.6003 28.6874 18.7195 28.6875 18.8438V20.7188C28.6872 21.0649 28.8151 21.3988 29.0464 21.6562C28.8151 21.9137 28.6872 22.2476 28.6875 22.5938V24.4688Z" fill="#19B4D7"/>
</svg>
