<svg width="30" height="30" viewBox="0 0 30 30" fill="none" xmlns="http://www.w3.org/2000/svg">
<path d="M19.5557 6.2019C18.1744 5.19043 16.5365 4.65759 14.8249 4.65759C13.1126 4.65759 11.4748 5.19043 10.0938 6.2019C8.71266 7.21357 7.7048 8.61012 7.18357 10.2404C6.12931 13.5553 7.33912 17.1503 10.2028 19.1773C10.5683 19.4378 10.7862 19.8577 10.7862 20.3055V20.9707C10.7862 21.6515 11.3386 22.2039 12.0196 22.2039L18.194 22.2077C18.4275 22.2351 18.6066 22.4334 18.6066 22.6669C18.6066 22.9003 18.4275 23.0988 18.194 23.1258L12.7819 23.1302C12.7781 23.1302 12.7743 23.1302 12.7665 23.1302C12.7627 23.1302 12.7589 23.1302 12.751 23.1302C11.7941 23.1729 11.0391 23.9547 11.0391 24.9158C11.0391 25.8765 11.7901 26.6588 12.751 26.7016H12.7743L17.2095 26.7444C17.4432 26.7714 17.6222 26.9697 17.6222 27.2034C17.6222 27.4368 17.4432 27.6353 17.2095 27.6621L13.288 27.6665C12.9221 27.6665 12.6266 27.9622 12.6266 28.3277C12.6266 28.6934 12.9221 28.9891 13.288 28.9891L17.2447 28.9853C17.2605 28.9853 17.2797 28.9853 17.2953 28.9815H17.3145C18.2369 28.9035 18.9485 28.1253 18.9485 27.2072C18.9485 26.2891 18.2407 25.5148 17.3304 25.4292C17.3263 25.4292 17.3225 25.4292 17.3225 25.4292C17.3187 25.4292 17.3107 25.4292 17.3069 25.4292C17.2991 25.4292 17.2913 25.4292 17.2835 25.4292C17.2759 25.4292 17.2681 25.4292 17.2605 25.4292L12.8093 25.3864C12.5642 25.3746 12.3699 25.1725 12.3699 24.9236C12.3699 24.6781 12.5604 24.4759 12.8055 24.4603L18.2288 24.4565C18.2446 24.4565 18.2639 24.4565 18.2797 24.4527H18.2989C19.2132 24.371 19.9214 23.5928 19.9214 22.6747C19.9214 21.7566 19.2094 20.9783 18.2989 20.8967C18.2951 20.8967 18.2913 20.8967 18.2913 20.8967C18.2873 20.8967 18.2835 20.8967 18.2797 20.8967C18.2716 20.8967 18.2639 20.8967 18.2523 20.8967C18.2446 20.8967 18.2369 20.8967 18.225 20.8967L12.1052 20.8929V20.3169C12.1052 19.4416 11.6771 18.613 10.9613 18.107C8.56871 16.4108 7.55705 13.4151 8.43617 10.6488C9.32346 7.85955 11.8874 5.98398 14.8169 5.98398C17.7467 5.98398 20.3105 7.85955 21.1974 10.6488C22.0847 13.4383 21.077 16.4498 18.692 18.1422C18.3925 18.3521 18.3225 18.7646 18.5365 19.0641C18.6648 19.2472 18.8709 19.3444 19.0771 19.3444C19.2094 19.3444 19.3418 19.3054 19.4584 19.2237C20.8551 18.2318 21.8822 16.8504 22.427 15.2283C22.9716 13.6019 22.9832 11.8822 22.4618 10.2522C21.9445 8.61012 20.9369 7.21357 19.5557 6.2019Z" fill="black"/>
<path d="M5.61967 12.1508H3.51875C3.21925 12.1508 2.97413 12.3959 2.97413 12.6954C2.97413 12.9949 3.21925 13.24 3.51875 13.24H5.61967C5.91917 13.24 6.16429 12.9949 6.16429 12.6954C6.16429 12.3921 5.92298 12.1508 5.61967 12.1508Z" fill="black"/>
<path d="M14.8055 4.0543C15.1048 4.0543 15.3501 3.80918 15.3501 3.50968V1.40895C15.3501 1.10926 15.1048 0.864136 14.8055 0.864136C14.5058 0.864136 14.2607 1.10926 14.2607 1.40895V3.50968C14.2607 3.81317 14.5018 4.0543 14.8055 4.0543Z" fill="black"/>
<path d="M8.31199 6.74662C8.44795 6.74662 8.5881 6.69623 8.69326 6.59107C8.90701 6.38113 8.91119 6.03446 8.70106 5.82091L7.22635 4.30741C7.01622 4.09328 6.67013 4.08948 6.456 4.2998C6.24207 4.50955 6.23827 4.85584 6.4484 5.06996L7.92292 6.58346C8.03169 6.69223 8.17184 6.74662 8.31199 6.74662Z" fill="black"/>
<path d="M22.4192 4.31117L20.9447 5.82468C20.7343 6.0388 20.7382 6.3849 20.9523 6.59502C21.0572 6.69999 21.1974 6.75039 21.3337 6.75039C21.4739 6.75039 21.6178 6.69619 21.7228 6.58723L23.1973 5.07392C23.4073 4.85979 23.4035 4.5137 23.1895 4.30357C22.9716 4.08945 22.6293 4.09705 22.4192 4.31117Z" fill="black"/>
<path d="M26.127 12.1508H23.9871C23.6876 12.1508 23.4425 12.3959 23.4425 12.6954C23.4425 12.9949 23.6876 13.24 23.9871 13.24H26.127C26.4265 13.24 26.6716 12.9949 26.6716 12.6954C26.6716 12.3921 26.4265 12.1508 26.127 12.1508Z" fill="black"/>
</svg>
