<svg width="30" height="30" viewBox="0 0 30 30" fill="none" xmlns="http://www.w3.org/2000/svg">
<g clip-path="url(#clip0_63_1048)">
<path d="M27.3633 1.66138H2.63672C1.18283 1.66138 0 2.84421 0 4.2981V20.6032C0 22.057 1.18283 23.2399 2.63672 23.2399H11.5133V26.5807H10.1899C9.70447 26.5807 9.31096 26.9742 9.31096 27.4596C9.31096 27.945 9.70447 28.3385 10.1899 28.3385H19.8102C20.2956 28.3385 20.6891 27.945 20.6891 27.4596C20.6891 26.9742 20.2956 26.5807 19.8102 26.5807H18.4867V23.2399H27.3633C28.8172 23.2399 30 22.057 30 20.6032V4.2981C30 2.84421 28.8172 1.66138 27.3633 1.66138ZM16.7289 26.5807H13.2711V23.2399H16.7289V26.5807ZM28.2422 20.6032C28.2422 21.0878 27.8479 21.4821 27.3633 21.4821H2.63672C2.15209 21.4821 1.75781 21.0878 1.75781 20.6032V19.2671H28.2422V20.6032ZM28.2422 17.5093H1.75781V4.2981C1.75781 3.81347 2.15209 3.41919 2.63672 3.41919H27.3633C27.8479 3.41919 28.2422 3.81347 28.2422 4.2981V17.5093Z" fill="black"/>
<path d="M10.6802 12.7085L8.29934 11.0831L10.6802 9.45763C11.0811 9.18394 11.1842 8.63708 10.9105 8.23619C10.6369 7.83535 10.09 7.73222 9.68906 8.00585L6.24498 10.3572C6.0051 10.5209 5.86166 10.7926 5.86166 11.083C5.86166 11.3734 6.0051 11.6452 6.24498 11.809L9.68906 14.1603C9.84064 14.2638 10.0131 14.3134 10.1838 14.3134C10.4645 14.3134 10.7404 14.1792 10.9105 13.93C11.1842 13.5291 11.0811 12.9822 10.6802 12.7085Z" fill="black"/>
<path d="M23.755 10.3573L20.3109 8.00598C19.9101 7.73234 19.3632 7.83547 19.0895 8.23631C18.8158 8.63721 18.9189 9.18406 19.3198 9.45775L21.7007 11.0832L19.3198 12.7085C18.9189 12.9822 18.8158 13.5291 19.0895 13.93C19.2597 14.1793 19.5354 14.3134 19.8162 14.3134C19.9869 14.3134 20.1594 14.2638 20.3109 14.1603L23.755 11.809C23.9949 11.6452 24.1383 11.3735 24.1383 11.0831C24.1383 10.7928 23.9948 10.5211 23.755 10.3573Z" fill="black"/>
<path d="M17.1948 7.17858C16.7718 6.94075 16.2359 7.09087 15.998 7.51409L12.4696 13.7908C12.2318 14.2139 12.382 14.7497 12.8051 14.9876C12.9413 15.0642 13.0891 15.1005 13.235 15.1005C13.5422 15.1005 13.8406 14.9391 14.0019 14.6522L17.5303 8.37542C17.7682 7.95231 17.618 7.41647 17.1948 7.17858Z" fill="black"/>
</g>
<defs>
<clipPath id="clip0_63_1048">
<rect width="30" height="30" fill="white"/>
</clipPath>
</defs>
</svg>
