<svg width="30" height="35" viewBox="0 0 30 35" fill="none" xmlns="http://www.w3.org/2000/svg">
<path d="M30 19.8216C30 24.2613 26.404 27.8573 21.9643 27.8573H21.4286C20.2433 27.8573 19.2857 26.8997 19.2857 25.7144C19.2857 24.5292 20.2433 23.5716 21.4286 23.5716H21.9643C24.0335 23.5716 25.7143 21.8908 25.7143 19.8216V19.2859H21.4286C19.0647 19.2859 17.1429 17.364 17.1429 15.0001V10.7144C17.1429 8.35059 19.0647 6.42871 21.4286 6.42871H25.7143C28.0781 6.42871 30 8.35059 30 10.7144V19.8216ZM12.8571 19.8216C12.8571 24.2613 9.26116 27.8573 4.82143 27.8573H4.28571C3.10045 27.8573 2.14286 26.8997 2.14286 25.7144C2.14286 24.5292 3.10045 23.5716 4.28571 23.5716H4.82143C6.89062 23.5716 8.57143 21.8908 8.57143 19.8216V19.2859H4.28571C1.92188 19.2859 0 17.364 0 15.0001V10.7144C0 8.35059 1.92188 6.42871 4.28571 6.42871H8.57143C10.9353 6.42871 12.8571 8.35059 12.8571 10.7144V19.8216Z" fill="#F29BCB"/>
</svg>
