<svg width="124" height="24" viewBox="0 0 124 24" fill="none" xmlns="http://www.w3.org/2000/svg">
<path d="M9.153 5.408C10.42 3.136 11.053 2 12 2C12.947 2 13.58 3.136 14.847 5.408L15.175 5.996C15.535 6.642 15.715 6.965 15.995 7.178C16.275 7.391 16.625 7.47 17.325 7.628L17.961 7.772C20.421 8.329 21.65 8.607 21.943 9.548C22.235 10.488 21.397 11.469 19.72 13.43L19.286 13.937C18.81 14.494 18.571 14.773 18.464 15.117C18.357 15.462 18.393 15.834 18.465 16.577L18.531 17.254C18.784 19.871 18.911 21.179 18.145 21.76C17.379 22.341 16.227 21.811 13.925 20.751L13.328 20.477C12.674 20.175 12.347 20.025 12 20.025C11.653 20.025 11.326 20.175 10.672 20.477L10.076 20.751C7.773 21.811 6.621 22.341 5.856 21.761C5.089 21.179 5.216 19.871 5.469 17.254L5.535 16.578C5.607 15.834 5.643 15.462 5.535 15.118C5.429 14.773 5.19 14.494 4.714 13.938L4.28 13.43C2.603 11.47 1.765 10.489 2.057 9.548C2.349 8.607 3.58 8.328 6.04 7.772L6.676 7.628C7.375 7.47 7.724 7.391 8.005 7.178C8.286 6.965 8.465 6.642 8.825 5.996L9.153 5.408Z" fill="#FBE55F"/>
<path d="M34.153 5.408C35.42 3.136 36.053 2 37 2C37.947 2 38.58 3.136 39.847 5.408L40.175 5.996C40.535 6.642 40.715 6.965 40.995 7.178C41.275 7.391 41.625 7.47 42.325 7.628L42.961 7.772C45.421 8.329 46.65 8.607 46.943 9.548C47.235 10.488 46.397 11.469 44.72 13.43L44.286 13.937C43.81 14.494 43.571 14.773 43.464 15.117C43.357 15.462 43.393 15.834 43.465 16.577L43.531 17.254C43.784 19.871 43.911 21.179 43.145 21.76C42.379 22.341 41.227 21.811 38.925 20.751L38.328 20.477C37.674 20.175 37.347 20.025 37 20.025C36.653 20.025 36.326 20.175 35.672 20.477L35.076 20.751C32.773 21.811 31.621 22.341 30.856 21.761C30.089 21.179 30.216 19.871 30.469 17.254L30.535 16.578C30.607 15.834 30.643 15.462 30.535 15.118C30.429 14.773 30.19 14.494 29.714 13.938L29.28 13.43C27.603 11.47 26.765 10.489 27.057 9.548C27.349 8.607 28.58 8.328 31.04 7.772L31.676 7.628C32.375 7.47 32.724 7.391 33.005 7.178C33.286 6.965 33.465 6.642 33.825 5.996L34.153 5.408Z" fill="#FBE55F"/>
<path d="M59.153 5.408C60.42 3.136 61.053 2 62 2C62.947 2 63.58 3.136 64.847 5.408L65.175 5.996C65.535 6.642 65.715 6.965 65.995 7.178C66.275 7.391 66.625 7.47 67.325 7.628L67.961 7.772C70.421 8.329 71.65 8.607 71.943 9.548C72.235 10.488 71.397 11.469 69.72 13.43L69.286 13.937C68.81 14.494 68.571 14.773 68.464 15.117C68.357 15.462 68.393 15.834 68.465 16.577L68.531 17.254C68.784 19.871 68.911 21.179 68.145 21.76C67.379 22.341 66.227 21.811 63.925 20.751L63.328 20.477C62.674 20.175 62.347 20.025 62 20.025C61.653 20.025 61.326 20.175 60.672 20.477L60.076 20.751C57.773 21.811 56.621 22.341 55.856 21.761C55.089 21.179 55.216 19.871 55.469 17.254L55.535 16.578C55.607 15.834 55.643 15.462 55.535 15.118C55.429 14.773 55.19 14.494 54.714 13.938L54.28 13.43C52.603 11.47 51.765 10.489 52.057 9.548C52.349 8.607 53.58 8.328 56.04 7.772L56.676 7.628C57.375 7.47 57.724 7.391 58.005 7.178C58.286 6.965 58.465 6.642 58.825 5.996L59.153 5.408Z" fill="#FBE55F"/>
<path d="M84.153 5.408C85.42 3.136 86.053 2 87 2C87.947 2 88.58 3.136 89.847 5.408L90.175 5.996C90.535 6.642 90.715 6.965 90.995 7.178C91.275 7.391 91.625 7.47 92.325 7.628L92.961 7.772C95.421 8.329 96.65 8.607 96.943 9.548C97.235 10.488 96.397 11.469 94.72 13.43L94.286 13.937C93.81 14.494 93.571 14.773 93.464 15.117C93.357 15.462 93.393 15.834 93.465 16.577L93.531 17.254C93.784 19.871 93.911 21.179 93.145 21.76C92.379 22.341 91.227 21.811 88.925 20.751L88.328 20.477C87.674 20.175 87.347 20.025 87 20.025C86.653 20.025 86.326 20.175 85.672 20.477L85.076 20.751C82.773 21.811 81.621 22.341 80.856 21.761C80.089 21.179 80.216 19.871 80.469 17.254L80.535 16.578C80.607 15.834 80.643 15.462 80.535 15.118C80.429 14.773 80.19 14.494 79.714 13.938L79.28 13.43C77.603 11.47 76.765 10.489 77.057 9.548C77.349 8.607 78.58 8.328 81.04 7.772L81.676 7.628C82.375 7.47 82.724 7.391 83.005 7.178C83.286 6.965 83.465 6.642 83.825 5.996L84.153 5.408Z" fill="#FBE55F"/>
<path d="M109.153 5.408C110.42 3.136 111.053 2 112 2C112.947 2 113.58 3.136 114.847 5.408L115.175 5.996C115.535 6.642 115.715 6.965 115.995 7.178C116.275 7.391 116.625 7.47 117.325 7.628L117.961 7.772C120.421 8.329 121.65 8.607 121.943 9.548C122.235 10.488 121.397 11.469 119.72 13.43L119.286 13.937C118.81 14.494 118.571 14.773 118.464 15.117C118.357 15.462 118.393 15.834 118.465 16.577L118.531 17.254C118.784 19.871 118.911 21.179 118.145 21.76C117.379 22.341 116.227 21.811 113.925 20.751L113.328 20.477C112.674 20.175 112.347 20.025 112 20.025C111.653 20.025 111.326 20.175 110.672 20.477L110.076 20.751C107.773 21.811 106.621 22.341 105.856 21.761C105.089 21.179 105.216 19.871 105.469 17.254L105.535 16.578C105.607 15.834 105.643 15.462 105.535 15.118C105.429 14.773 105.19 14.494 104.714 13.938L104.28 13.43C102.603 11.47 101.765 10.489 102.057 9.548C102.349 8.607 103.58 8.328 106.04 7.772L106.676 7.628C107.375 7.47 107.724 7.391 108.005 7.178C108.286 6.965 108.465 6.642 108.825 5.996L109.153 5.408Z" fill="#FBE55F"/>
</svg>
